# xmcd
#
# Track frame offsets:
#  150
#  32166
#  54392
#  78507
#  99456
#  115566
#  130469
#  146957
#  160810
#  176616
#  190539
#  209251
#  230557
#  246402
#
# Disc length: 3405 seconds
#
# Revision: 0
# Processed by: cddbd v1.5.1PL2 Copyright (c) Steve Scherf et al.
# Submitted via: Collectorz.com_Music_Collector 6.10
#
DISCID=c10d4b0e
DTITLE=Paul Motian Band - Garden of Eden
DYEAR=2006
DGENRE=Jazz
TTITLE0=Pithecanthropus Erectus
TTITLE1=Goodbye Pork Pie Hat
TTITLE2=Etude
TTITLE3=Mesmer
TTITLE4=Mumbo Jumbo
TTITLE5=Desert Dream
TTITLE6=Balata
TTITLE7=Bill
TTITLE8=Endless
TTITLE9=Prelude 2 Narcissus
TTITLE10=Garden of Eden
TTITLE11=Manhattan Melodrama
TTITLE12=Evidence
TTITLE13=Cheryl
EXTD=
EXTT0=
EXTT1=
EXTT2=
EXTT3=
EXTT4=
EXTT5=
EXTT6=
EXTT7=
EXTT8=
EXTT9=
EXTT10=
EXTT11=
EXTT12=
EXTT13=
PLAYORDER=
